<svg xmlns="http://www.w3.org/2000/svg" viewBox="0 0 20.007 20"><defs><style>.a{fill:#455f88;}</style></defs><g transform="translate(0 -0.084)"><g transform="translate(0 0.084)"><path class="a" d="M19.33,11.808,18.1,11.016a8.412,8.412,0,0,0,.029-1.546L19.4,8.683a1.251,1.251,0,0,0,.51-1.542l-.676-1.691a1.251,1.251,0,0,0-1.169-.792,1.191,1.191,0,0,0-.269.029L16.371,5A7.993,7.993,0,0,0,15.3,3.888l.356-1.463A1.253,1.253,0,0,0,14.929.979L13.267.266a1.261,1.261,0,0,0-1.55.477s0,0,0,.008l-.779,1.243a8.367,8.367,0,0,0-1.542-.029L8.6.685a1.273,1.273,0,0,0-1.077-.6,1.188,1.188,0,0,0-.464.091L5.372.851A1.257,1.257,0,0,0,4.61,2.285l.311,1.43A7.715,7.715,0,0,0,3.769,4.829L2.322,4.481a1.166,1.166,0,0,0-.294-.033,1.251,1.251,0,0,0-1.152.758L.163,6.872A1.255,1.255,0,0,0,.64,8.422l1.252.8a8.06,8.06,0,0,0-.017,1.55l-1.268.771a0,0,0,0,0,0,0,1.288,1.288,0,0,0-.535,1.5.059.059,0,0,1,.008.025l.676,1.691a1.257,1.257,0,0,0,1.169.787,1.191,1.191,0,0,0,.269-.029l1.45-.315a8.313,8.313,0,0,0,1.082,1.111l-.348,1.446A1.253,1.253,0,0,0,5.1,19.214l1.666.713a1.261,1.261,0,0,0,1.55-.477l.8-1.252a8.06,8.06,0,0,0,1.55.017l.771,1.268a1.273,1.273,0,0,0,1.077.6h0a1.188,1.188,0,0,0,.464-.091l1.691-.676a1.257,1.257,0,0,0,.763-1.434l-.315-1.45a7.921,7.921,0,0,0,1.069-1.04l1.459.352a1.166,1.166,0,0,0,.294.033,1.251,1.251,0,0,0,1.152-.758l.713-1.662A1.255,1.255,0,0,0,19.33,11.808Zm-.555,1.111-.713,1.666a.136.136,0,0,1-.124.083.091.091,0,0,1-.033,0l-1.8-.435a.549.549,0,0,0-.572.2,6.856,6.856,0,0,1-1.372,1.334.559.559,0,0,0-.215.572l.394,1.794a.14.14,0,0,1-.083.162l-1.691.676a.208.208,0,0,1-.05.008h0a.14.14,0,0,1-.12-.066l-.957-1.571a.559.559,0,0,0-.477-.269.4.4,0,0,0-.07,0,7.481,7.481,0,0,1-.912.058,6.847,6.847,0,0,1-1.053-.083.557.557,0,0,0-.555.249l-.995,1.546a.144.144,0,0,1-.17.054l-1.666-.713a.137.137,0,0,1-.079-.157l.431-1.79a.561.561,0,0,0-.2-.576,7,7,0,0,1-1.372-1.4.564.564,0,0,0-.572-.215l-1.794.394a.091.091,0,0,1-.033,0,.138.138,0,0,1-.128-.087l-.671-1.674a.163.163,0,0,1,.066-.178l1.567-.953a.559.559,0,0,0,.265-.551,6.773,6.773,0,0,1,.025-1.964.557.557,0,0,0-.249-.555L1.245,7.477a.139.139,0,0,1-.054-.17L1.9,5.646a.136.136,0,0,1,.124-.083.091.091,0,0,1,.033,0L3.852,6a.553.553,0,0,0,.576-.207A6.529,6.529,0,0,1,5.866,4.4a.557.557,0,0,0,.224-.576L5.7,2.048a.14.14,0,0,1,.083-.162l1.691-.676a.208.208,0,0,1,.05-.008.152.152,0,0,1,.124.066l.97,1.583a.561.561,0,0,0,.547.261,7.088,7.088,0,0,1,1.96.033.562.562,0,0,0,.559-.257l.97-1.542a.14.14,0,0,1,.166-.054l1.662.713a.137.137,0,0,1,.079.157l-.435,1.8a.56.56,0,0,0,.2.572,6.947,6.947,0,0,1,1.359,1.409.551.551,0,0,0,.572.22l1.778-.385a.091.091,0,0,1,.033,0,.138.138,0,0,1,.128.087l.676,1.691a.139.139,0,0,1-.058.17l-1.583.97a.561.561,0,0,0-.261.547,7.089,7.089,0,0,1-.033,1.96.56.56,0,0,0,.253.555l1.533.982A.151.151,0,0,1,18.775,12.919Z" transform="translate(0 -0.084)"/><path class="a" d="M143.657,141.484h-.067a4.171,4.171,0,0,0-.062,8.341h.067a4.171,4.171,0,0,0,.063-8.341Zm-.062,7.216h-.046a3.046,3.046,0,0,1,.046-6.091h.046a3.046,3.046,0,0,1-.046,6.091Z" transform="translate(-133.663 -135.646)"/></g></g></svg>