<svg xmlns="http://www.w3.org/2000/svg" xmlns:xlink="http://www.w3.org/1999/xlink" viewBox="0 0 22.983 22.829"><defs><style>.a{fill:url(#a);}</style><linearGradient id="a" x1="0.5" x2="0.5" y2="1" gradientUnits="objectBoundingBox"><stop offset="0" stop-color="#43d583"/><stop offset="1" stop-color="#41b4c2"/></linearGradient></defs><path class="a" d="M19.919,8.846c-.008,0-.015,0-.023,0a8.5,8.5,0,0,0-8.4-7.971,8.5,8.5,0,0,0-8.4,7.971c-.008,0-.015,0-.023,0A3.073,3.073,0,0,0,0,11.911v3.064a3.064,3.064,0,1,0,6.129,0V11.911A3.058,3.058,0,0,0,4.6,9.277a6.892,6.892,0,0,1,13.784,0,3.06,3.06,0,0,0-1.529,2.634v3.064a3.059,3.059,0,0,0,1.667,2.709,7.592,7.592,0,0,1-4.742,2.92,2.36,2.36,0,0,0-2.134-1.494,2.3,2.3,0,0,0,0,4.6,2.228,2.228,0,0,0,2.176-1.57c3.428-.316,5.635-3.055,6.406-4.129a3.064,3.064,0,0,0,2.756-3.032V11.911a3.073,3.073,0,0,0-3.064-3.065ZM4.6,14.975a1.448,1.448,0,0,1-1.532,1.532,1.448,1.448,0,0,1-1.532-1.532V11.911a1.448,1.448,0,0,1,1.532-1.532A1.448,1.448,0,0,1,4.6,11.911Zm7.048,7.2a.766.766,0,1,1,.766-.766A.724.724,0,0,1,11.645,22.177Zm9.806-7.2a1.532,1.532,0,1,1-3.064,0V11.911a1.532,1.532,0,0,1,3.064,0Z" transform="translate(0 -0.879)"/></svg>