<svg xmlns="http://www.w3.org/2000/svg" xmlns:xlink="http://www.w3.org/1999/xlink" viewBox="0 0 24.216 20.982"><defs><style>.a{fill:url(#a);}</style><linearGradient id="a" x1="0.5" x2="0.5" y2="1" gradientUnits="objectBoundingBox"><stop offset="0" stop-color="#43d583"/><stop offset="1" stop-color="#41b4c2"/></linearGradient></defs><g transform="translate(0)"><g transform="translate(0 0)"><path class="a" d="M23.647,39.047,12.49,34.261a.951.951,0,0,0-.75,0L.584,39.047a.951.951,0,0,0,0,1.748l11.157,4.754a.951.951,0,0,0,.745,0L23.645,40.8a.951.951,0,0,0,0-1.748ZM12.116,43.641,3.377,39.918l8.738-3.749,8.738,3.749Z" transform="translate(-0.008 -34.184)"/></g><g transform="translate(0 14.294)"><g transform="translate(0 0)"><path class="a" d="M24.138,336.981a.951.951,0,0,0-1.248-.5l-10.782,4.625L1.325,336.482a.951.951,0,0,0-.75,1.747l11.157,4.786a.951.951,0,0,0,.75,0l11.157-4.786A.951.951,0,0,0,24.138,336.981Z" transform="translate(0 -336.404)"/></g></g><g transform="translate(0 9.54)"><g transform="translate(0 0)"><path class="a" d="M24.146,236.467a.951.951,0,0,0-1.248-.5l-10.784,4.6-10.784-4.6a.951.951,0,1,0-.746,1.749l11.157,4.754a.951.951,0,0,0,.745,0l11.157-4.754A.951.951,0,0,0,24.146,236.467Z" transform="translate(-0.007 -235.889)"/></g></g></g></svg>