<svg xmlns="http://www.w3.org/2000/svg" xmlns:xlink="http://www.w3.org/1999/xlink" viewBox="0 0 20.669 24.598"><defs><style>.a{fill:url(#a);}</style><linearGradient id="a" x1="0.5" x2="0.5" y2="1" gradientUnits="objectBoundingBox"><stop offset="0" stop-color="#43d583"/><stop offset="1" stop-color="#41b4c2"/></linearGradient></defs><path class="a" d="M37.754,6.334c-.013-.664-.025-1.291-.025-1.9a.861.861,0,0,0-.861-.861A11.871,11.871,0,0,1,28.046.244a.861.861,0,0,0-1.2,0,11.869,11.869,0,0,1-8.822,3.33.861.861,0,0,0-.861.861c0,.607-.012,1.235-.025,1.9-.118,6.18-.28,14.644,10.025,18.216a.86.86,0,0,0,.564,0C38.034,20.979,37.872,12.514,37.754,6.334ZM27.446,22.824c-8.838-3.211-8.7-10.244-8.586-16.456.007-.373.014-.734.019-1.089a13.277,13.277,0,0,0,8.567-3.247,13.279,13.279,0,0,0,8.568,3.247c0,.354.012.715.019,1.088C36.151,12.58,36.285,19.613,27.446,22.824Z" transform="translate(-17.112 0)"/><path class="a" d="M75.908,79.138l-4.156,4.155L69.979,81.52a.861.861,0,0,0-1.218,1.218l2.382,2.382a.861.861,0,0,0,1.218,0l4.764-4.764a.861.861,0,1,0-1.217-1.218Z" transform="translate(-62.609 -69.83)"/></svg>